G04 (created by PCBNEW (2013-07-07 BZR 4022)-stable) date 08/06/2014 17:08:36*
%MOIN*%
G04 Gerber Fmt 3.4, Leading zero omitted, Abs format*
%FSLAX34Y34*%
G01*
G70*
G90*
G04 APERTURE LIST*
%ADD10C,0.00590551*%
%ADD11R,0.055X0.055*%
%ADD12C,0.055*%
%ADD13C,0.0551181*%
%ADD14C,0.035*%
%ADD15C,0.006*%
%ADD16C,0.02*%
%ADD17C,0.05*%
G04 APERTURE END LIST*
G54D10*
G54D11*
X46250Y-46500D03*
G54D12*
X46250Y-47500D03*
X46250Y-48500D03*
X46250Y-49500D03*
X46250Y-50500D03*
X46250Y-51500D03*
X46250Y-52500D03*
X46250Y-53500D03*
G54D11*
X53750Y-46500D03*
G54D12*
X53750Y-47500D03*
X53750Y-48500D03*
X53750Y-49500D03*
X53750Y-50500D03*
X53750Y-51500D03*
X53750Y-52500D03*
X53750Y-53500D03*
G54D11*
X52000Y-58000D03*
G54D12*
X51000Y-58000D03*
X50000Y-58000D03*
X49000Y-58000D03*
X48000Y-58000D03*
X48000Y-42000D03*
X49000Y-42000D03*
X50000Y-42000D03*
G54D13*
X51000Y-42000D03*
X52000Y-42000D03*
G54D14*
X48220Y-50930D03*
X51930Y-50480D03*
X50010Y-48880D03*
X50680Y-47070D03*
X51960Y-47500D03*
X48750Y-53011D03*
X53260Y-44060D03*
X54610Y-48290D03*
X46518Y-54039D03*
X47670Y-49810D03*
X48530Y-49800D03*
X44380Y-54680D03*
X44880Y-50960D03*
X47320Y-55769D03*
X52270Y-56010D03*
X48250Y-44600D03*
X52600Y-47860D03*
X46770Y-57000D03*
X49922Y-55129D03*
X49631Y-47816D03*
X47821Y-47609D03*
X50573Y-47836D03*
X49097Y-54579D03*
X48951Y-47166D03*
X50665Y-54024D03*
X49424Y-48189D03*
X50560Y-51144D03*
X48240Y-50389D03*
X50040Y-41400D03*
X54110Y-43510D03*
X48260Y-57160D03*
X53190Y-58150D03*
X49320Y-45480D03*
X52400Y-44050D03*
X49250Y-43020D03*
X51460Y-43020D03*
X49959Y-51020D03*
X50456Y-50593D03*
X49520Y-56700D03*
X46800Y-55800D03*
X53890Y-42510D03*
X51840Y-43360D03*
X51320Y-45240D03*
X53590Y-54550D03*
X50440Y-54550D03*
X51129Y-52714D03*
X50679Y-44466D03*
X53390Y-45650D03*
X54270Y-45650D03*
G54D15*
X47960Y-51190D02*
X47960Y-51656D01*
X48220Y-50930D02*
X47960Y-51190D01*
X51930Y-51656D02*
X51930Y-51620D01*
X51930Y-50480D02*
X51930Y-51620D01*
X52340Y-51656D02*
X51930Y-51656D01*
X51930Y-51656D02*
X47960Y-51656D01*
X47960Y-51656D02*
X46406Y-51656D01*
X46406Y-51656D02*
X46250Y-51500D01*
X53593Y-51656D02*
X52340Y-51656D01*
X53750Y-51500D02*
X53593Y-51656D01*
X45758Y-52008D02*
X46250Y-52500D01*
X45758Y-52008D02*
X45758Y-49464D01*
X45758Y-49464D02*
X46273Y-48950D01*
X49940Y-48950D02*
X46273Y-48950D01*
X50010Y-48880D02*
X49940Y-48950D01*
X53750Y-49500D02*
X47790Y-49500D01*
X47790Y-49500D02*
X46250Y-49500D01*
X50680Y-47070D02*
X50680Y-47417D01*
X51460Y-47417D02*
X51877Y-47417D01*
X46250Y-47500D02*
X46406Y-47343D01*
X46406Y-47343D02*
X48559Y-47343D01*
X48559Y-47343D02*
X48655Y-47438D01*
X48655Y-47438D02*
X49054Y-47438D01*
X49054Y-47438D02*
X49075Y-47417D01*
X49075Y-47417D02*
X50680Y-47417D01*
X50680Y-47417D02*
X51460Y-47417D01*
X51877Y-47417D02*
X51960Y-47500D01*
X49879Y-51882D02*
X48750Y-53011D01*
X53905Y-51882D02*
X49879Y-51882D01*
X54115Y-51672D02*
X53905Y-51882D01*
X54115Y-47865D02*
X54115Y-51672D01*
X53750Y-47500D02*
X54115Y-47865D01*
X53667Y-47417D02*
X53750Y-47500D01*
X53350Y-44060D02*
X53260Y-44060D01*
X54610Y-45320D02*
X53350Y-44060D01*
X54610Y-46510D02*
X54610Y-45320D01*
X54610Y-47880D02*
X54610Y-46510D01*
X54610Y-48290D02*
X54610Y-47880D01*
X46250Y-48500D02*
X53750Y-48500D01*
X46272Y-54039D02*
X46518Y-54039D01*
X45635Y-53402D02*
X46272Y-54039D01*
X45635Y-49114D02*
X45635Y-53402D01*
X46250Y-48500D02*
X45635Y-49114D01*
X46626Y-50123D02*
X46250Y-50500D01*
X53373Y-50123D02*
X46626Y-50123D01*
X53750Y-50500D02*
X53373Y-50123D01*
G54D16*
X47670Y-49810D02*
X48520Y-49810D01*
X48520Y-49810D02*
X48530Y-49800D01*
X44350Y-54650D02*
X44350Y-54580D01*
X44380Y-54680D02*
X44350Y-54650D01*
X44880Y-50960D02*
X44350Y-50960D01*
X47560Y-56010D02*
X52270Y-56010D01*
X47320Y-55769D02*
X47560Y-56010D01*
X48250Y-44600D02*
X48250Y-46500D01*
X52600Y-47860D02*
X52600Y-46500D01*
G54D17*
X46250Y-46500D02*
X45220Y-46500D01*
X44350Y-47370D02*
X44350Y-50960D01*
X45220Y-46500D02*
X44350Y-47370D01*
X44350Y-50960D02*
X44350Y-54580D01*
X44350Y-54580D02*
X46770Y-57000D01*
X53750Y-46500D02*
X52600Y-46500D01*
X52600Y-46500D02*
X48250Y-46500D01*
X48250Y-46500D02*
X46250Y-46500D01*
G54D15*
X49565Y-47882D02*
X49631Y-47816D01*
X46170Y-47882D02*
X49565Y-47882D01*
X45374Y-48678D02*
X46170Y-47882D01*
X45374Y-53499D02*
X45374Y-48678D01*
X46335Y-54460D02*
X45374Y-53499D01*
X48841Y-54460D02*
X46335Y-54460D01*
X48987Y-54314D02*
X48841Y-54460D01*
X49206Y-54314D02*
X48987Y-54314D01*
X49922Y-55030D02*
X49206Y-54314D01*
X49922Y-55129D02*
X49922Y-55030D01*
X50287Y-47551D02*
X50573Y-47836D01*
X49112Y-47551D02*
X50287Y-47551D01*
X49053Y-47609D02*
X49112Y-47551D01*
X47821Y-47609D02*
X49053Y-47609D01*
X48907Y-47121D02*
X48951Y-47166D01*
X46100Y-47121D02*
X48907Y-47121D01*
X45254Y-47968D02*
X46100Y-47121D01*
X45254Y-53583D02*
X45254Y-47968D01*
X46276Y-54605D02*
X45254Y-53583D01*
X49071Y-54605D02*
X46276Y-54605D01*
X49097Y-54579D02*
X49071Y-54605D01*
X49369Y-48134D02*
X49424Y-48189D01*
X46094Y-48134D02*
X49369Y-48134D01*
X45494Y-48734D02*
X46094Y-48134D01*
X45494Y-53449D02*
X45494Y-48734D01*
X46351Y-54306D02*
X45494Y-53449D01*
X48825Y-54306D02*
X46351Y-54306D01*
X49108Y-54024D02*
X48825Y-54306D01*
X50665Y-54024D02*
X49108Y-54024D01*
X50560Y-51144D02*
X50404Y-51300D01*
X50404Y-51300D02*
X49152Y-51300D01*
X49152Y-51300D02*
X48240Y-50389D01*
G54D16*
X48000Y-41670D02*
X48000Y-42000D01*
X48270Y-41400D02*
X48000Y-41670D01*
X50040Y-41400D02*
X48270Y-41400D01*
X52600Y-42000D02*
X52000Y-42000D01*
X54110Y-43510D02*
X52600Y-42000D01*
X52000Y-58000D02*
X52000Y-57570D01*
X52000Y-57570D02*
X51590Y-57160D01*
X51590Y-57160D02*
X51580Y-57160D01*
X51270Y-57160D02*
X51590Y-57160D01*
X48260Y-57160D02*
X51270Y-57160D01*
X50710Y-58710D02*
X50000Y-58000D01*
X52630Y-58710D02*
X50710Y-58710D01*
X53190Y-58150D02*
X52630Y-58710D01*
X52400Y-44050D02*
X50190Y-44050D01*
X49320Y-44920D02*
X49320Y-45480D01*
X50190Y-44050D02*
X49320Y-44920D01*
X51460Y-43020D02*
X49250Y-43020D01*
G54D15*
X50385Y-50593D02*
X50456Y-50593D01*
X49959Y-51020D02*
X50385Y-50593D01*
G54D16*
X47700Y-56700D02*
X49520Y-56700D01*
X46800Y-55800D02*
X47700Y-56700D01*
X51000Y-42000D02*
X51600Y-41400D01*
X52780Y-41400D02*
X51600Y-41400D01*
X52780Y-41400D02*
X53890Y-42510D01*
X52320Y-43360D02*
X51840Y-43360D01*
X52880Y-43920D02*
X52320Y-43360D01*
X52880Y-44310D02*
X52880Y-43920D01*
X52540Y-44650D02*
X52880Y-44310D01*
X51910Y-44650D02*
X52540Y-44650D01*
X51320Y-45240D02*
X51910Y-44650D01*
X50440Y-54550D02*
X53590Y-54550D01*
G54D15*
X50679Y-44466D02*
X50679Y-45429D01*
X51129Y-52714D02*
X51807Y-52037D01*
X51807Y-52037D02*
X53920Y-52037D01*
X53920Y-52037D02*
X54237Y-51720D01*
X54237Y-51720D02*
X54237Y-46290D01*
X53946Y-46000D02*
X54237Y-46290D01*
X51250Y-46000D02*
X53946Y-46000D01*
X50679Y-45429D02*
X51250Y-46000D01*
G54D16*
X53390Y-45650D02*
X54270Y-45650D01*
G54D17*
X53750Y-53500D02*
X46250Y-53500D01*
M02*
