M48
;DRILL file {Pcbnew (2013-07-07 BZR 4022)-stable} date 08/06/2014 17:08:31
;FORMAT={-:-/ absolute / inch / decimal}
FMAT,2
INCH,TZ
T1C0.024
T2C0.025
T3C0.032
%
G90
G05
M72
T1
X5.1Y-4.2
X5.2Y-4.2
T2
X4.438Y-5.468
X4.488Y-5.096
X4.6518Y-5.4039
X4.677Y-5.7
X4.68Y-5.58
X4.732Y-5.577
X4.767Y-4.981
X4.7821Y-4.761
X4.822Y-5.093
X4.8241Y-5.0389
X4.825Y-4.46
X4.826Y-5.716
X4.853Y-4.98
X4.875Y-5.3011
X4.8952Y-4.7166
X4.9097Y-5.458
X4.925Y-4.302
X4.932Y-4.548
X4.9425Y-4.819
X4.952Y-5.67
X4.9632Y-4.7816
X4.9923Y-5.513
X4.9959Y-5.102
X5.001Y-4.888
X5.004Y-4.14
X5.044Y-5.455
X5.0456Y-5.0594
X5.0561Y-5.1144
X5.0574Y-4.7837
X5.0665Y-5.4024
X5.068Y-4.4466
X5.068Y-4.707
X5.113Y-5.2715
X5.132Y-4.524
X5.146Y-4.302
X5.184Y-4.336
X5.193Y-5.048
X5.196Y-4.75
X5.227Y-5.601
X5.24Y-4.405
X5.26Y-4.786
X5.319Y-5.815
X5.326Y-4.406
X5.339Y-4.565
X5.359Y-5.455
X5.389Y-4.251
X5.411Y-4.351
X5.427Y-4.565
X5.461Y-4.829
T3
X4.625Y-4.65
X4.625Y-4.75
X4.625Y-4.85
X4.625Y-4.95
X4.625Y-5.05
X4.625Y-5.15
X4.625Y-5.25
X4.625Y-5.35
X4.8Y-4.2
X4.8Y-5.8
X4.9Y-4.2
X4.9Y-5.8
X5.Y-4.2
X5.Y-5.8
X5.1Y-5.8
X5.2Y-5.8
X5.375Y-4.65
X5.375Y-4.75
X5.375Y-4.85
X5.375Y-4.95
X5.375Y-5.05
X5.375Y-5.15
X5.375Y-5.25
X5.375Y-5.35
T0
M30
