G04 (created by PCBNEW (2013-07-07 BZR 4022)-stable) date 08/06/2014 17:08:36*
%MOIN*%
G04 Gerber Fmt 3.4, Leading zero omitted, Abs format*
%FSLAX34Y34*%
G01*
G70*
G90*
G04 APERTURE LIST*
%ADD10C,0.00590551*%
%ADD11C,0.00625*%
%ADD12C,0.005*%
%ADD13C,0.008*%
%ADD14C,0.0039*%
%ADD15C,0.012*%
%ADD16C,0.0024*%
%ADD17C,0.0047*%
%ADD18C,0.003*%
%ADD19C,0.0043*%
G04 APERTURE END LIST*
G54D10*
G54D11*
X54770Y-54683D02*
X54746Y-54671D01*
X54710Y-54671D01*
X54675Y-54683D01*
X54651Y-54706D01*
X54639Y-54730D01*
X54627Y-54778D01*
X54627Y-54814D01*
X54639Y-54861D01*
X54651Y-54885D01*
X54675Y-54909D01*
X54710Y-54921D01*
X54734Y-54921D01*
X54770Y-54909D01*
X54782Y-54897D01*
X54782Y-54814D01*
X54734Y-54814D01*
X54889Y-54921D02*
X54889Y-54671D01*
X55032Y-54921D01*
X55032Y-54671D01*
X55151Y-54921D02*
X55151Y-54671D01*
X55210Y-54671D01*
X55246Y-54683D01*
X55270Y-54706D01*
X55282Y-54730D01*
X55294Y-54778D01*
X55294Y-54814D01*
X55282Y-54861D01*
X55270Y-54885D01*
X55246Y-54909D01*
X55210Y-54921D01*
X55151Y-54921D01*
X54687Y-55083D02*
X54734Y-55083D01*
X54758Y-55095D01*
X54782Y-55119D01*
X54794Y-55167D01*
X54794Y-55250D01*
X54782Y-55297D01*
X54758Y-55321D01*
X54734Y-55333D01*
X54687Y-55333D01*
X54663Y-55321D01*
X54639Y-55297D01*
X54627Y-55250D01*
X54627Y-55167D01*
X54639Y-55119D01*
X54663Y-55095D01*
X54687Y-55083D01*
X54901Y-55202D02*
X54984Y-55202D01*
X55020Y-55333D02*
X54901Y-55333D01*
X54901Y-55083D01*
X55020Y-55083D01*
X54580Y-54988D02*
X55068Y-54988D01*
X54627Y-55734D02*
X54663Y-55746D01*
X54722Y-55746D01*
X54746Y-55734D01*
X54758Y-55722D01*
X54770Y-55698D01*
X54770Y-55674D01*
X54758Y-55650D01*
X54746Y-55639D01*
X54722Y-55627D01*
X54675Y-55615D01*
X54651Y-55603D01*
X54639Y-55591D01*
X54627Y-55567D01*
X54627Y-55543D01*
X54639Y-55520D01*
X54651Y-55508D01*
X54675Y-55496D01*
X54734Y-55496D01*
X54770Y-55508D01*
X54972Y-55734D02*
X54949Y-55746D01*
X54901Y-55746D01*
X54877Y-55734D01*
X54865Y-55710D01*
X54865Y-55615D01*
X54877Y-55591D01*
X54901Y-55579D01*
X54949Y-55579D01*
X54972Y-55591D01*
X54984Y-55615D01*
X54984Y-55639D01*
X54865Y-55662D01*
X55127Y-55746D02*
X55103Y-55734D01*
X55091Y-55710D01*
X55091Y-55496D01*
X54770Y-55920D02*
X54746Y-55908D01*
X54710Y-55908D01*
X54675Y-55920D01*
X54651Y-55944D01*
X54639Y-55968D01*
X54627Y-56015D01*
X54627Y-56051D01*
X54639Y-56099D01*
X54651Y-56122D01*
X54675Y-56146D01*
X54710Y-56158D01*
X54734Y-56158D01*
X54770Y-56146D01*
X54782Y-56134D01*
X54782Y-56051D01*
X54734Y-56051D01*
X54889Y-56063D02*
X55080Y-56063D01*
X55318Y-56158D02*
X55199Y-56158D01*
X55199Y-55908D01*
X55508Y-56158D02*
X55508Y-56027D01*
X55496Y-56003D01*
X55472Y-55992D01*
X55425Y-55992D01*
X55401Y-56003D01*
X55508Y-56146D02*
X55484Y-56158D01*
X55425Y-56158D01*
X55401Y-56146D01*
X55389Y-56122D01*
X55389Y-56099D01*
X55401Y-56075D01*
X55425Y-56063D01*
X55484Y-56063D01*
X55508Y-56051D01*
X55591Y-55992D02*
X55687Y-55992D01*
X55627Y-55908D02*
X55627Y-56122D01*
X55639Y-56146D01*
X55663Y-56158D01*
X55687Y-56158D01*
X55877Y-56146D02*
X55853Y-56158D01*
X55806Y-56158D01*
X55782Y-56146D01*
X55770Y-56134D01*
X55758Y-56111D01*
X55758Y-56039D01*
X55770Y-56015D01*
X55782Y-56003D01*
X55806Y-55992D01*
X55853Y-55992D01*
X55877Y-56003D01*
X55984Y-56158D02*
X55984Y-55908D01*
X56091Y-56158D02*
X56091Y-56027D01*
X56080Y-56003D01*
X56056Y-55992D01*
X56020Y-55992D01*
X55996Y-56003D01*
X55984Y-56015D01*
X54782Y-56571D02*
X54699Y-56452D01*
X54639Y-56571D02*
X54639Y-56321D01*
X54734Y-56321D01*
X54758Y-56333D01*
X54770Y-56345D01*
X54782Y-56368D01*
X54782Y-56404D01*
X54770Y-56428D01*
X54758Y-56440D01*
X54734Y-56452D01*
X54639Y-56452D01*
X54889Y-56475D02*
X55080Y-56475D01*
X55318Y-56571D02*
X55199Y-56571D01*
X55199Y-56321D01*
X55508Y-56571D02*
X55508Y-56440D01*
X55496Y-56416D01*
X55472Y-56404D01*
X55425Y-56404D01*
X55401Y-56416D01*
X55508Y-56559D02*
X55484Y-56571D01*
X55425Y-56571D01*
X55401Y-56559D01*
X55389Y-56535D01*
X55389Y-56511D01*
X55401Y-56487D01*
X55425Y-56475D01*
X55484Y-56475D01*
X55508Y-56464D01*
X55591Y-56404D02*
X55687Y-56404D01*
X55627Y-56321D02*
X55627Y-56535D01*
X55639Y-56559D01*
X55663Y-56571D01*
X55687Y-56571D01*
X55877Y-56559D02*
X55853Y-56571D01*
X55806Y-56571D01*
X55782Y-56559D01*
X55770Y-56547D01*
X55758Y-56523D01*
X55758Y-56452D01*
X55770Y-56428D01*
X55782Y-56416D01*
X55806Y-56404D01*
X55853Y-56404D01*
X55877Y-56416D01*
X55984Y-56571D02*
X55984Y-56321D01*
X56091Y-56571D02*
X56091Y-56440D01*
X56080Y-56416D01*
X56056Y-56404D01*
X56020Y-56404D01*
X55996Y-56416D01*
X55984Y-56428D01*
X54782Y-56959D02*
X54770Y-56971D01*
X54734Y-56983D01*
X54710Y-56983D01*
X54675Y-56971D01*
X54651Y-56947D01*
X54639Y-56924D01*
X54627Y-56876D01*
X54627Y-56840D01*
X54639Y-56793D01*
X54651Y-56769D01*
X54675Y-56745D01*
X54710Y-56733D01*
X54734Y-56733D01*
X54770Y-56745D01*
X54782Y-56757D01*
X55008Y-56983D02*
X54889Y-56983D01*
X54889Y-56733D01*
X55091Y-56983D02*
X55091Y-56733D01*
X55234Y-56983D02*
X55127Y-56840D01*
X55234Y-56733D02*
X55091Y-56876D01*
X54639Y-57396D02*
X54639Y-57146D01*
X54699Y-57146D01*
X54734Y-57158D01*
X54758Y-57181D01*
X54770Y-57205D01*
X54782Y-57253D01*
X54782Y-57289D01*
X54770Y-57336D01*
X54758Y-57360D01*
X54734Y-57384D01*
X54699Y-57396D01*
X54639Y-57396D01*
X54996Y-57396D02*
X54996Y-57265D01*
X54984Y-57241D01*
X54960Y-57229D01*
X54913Y-57229D01*
X54889Y-57241D01*
X54996Y-57384D02*
X54972Y-57396D01*
X54913Y-57396D01*
X54889Y-57384D01*
X54877Y-57360D01*
X54877Y-57336D01*
X54889Y-57312D01*
X54913Y-57300D01*
X54972Y-57300D01*
X54996Y-57289D01*
X55080Y-57229D02*
X55175Y-57229D01*
X55115Y-57146D02*
X55115Y-57360D01*
X55127Y-57384D01*
X55151Y-57396D01*
X55175Y-57396D01*
X55365Y-57396D02*
X55365Y-57265D01*
X55353Y-57241D01*
X55330Y-57229D01*
X55282Y-57229D01*
X55258Y-57241D01*
X55365Y-57384D02*
X55341Y-57396D01*
X55282Y-57396D01*
X55258Y-57384D01*
X55246Y-57360D01*
X55246Y-57336D01*
X55258Y-57312D01*
X55282Y-57300D01*
X55341Y-57300D01*
X55365Y-57289D01*
X54603Y-57558D02*
X54687Y-57808D01*
X54770Y-57558D01*
X54996Y-57784D02*
X54984Y-57796D01*
X54949Y-57808D01*
X54925Y-57808D01*
X54889Y-57796D01*
X54865Y-57772D01*
X54853Y-57749D01*
X54841Y-57701D01*
X54841Y-57665D01*
X54853Y-57618D01*
X54865Y-57594D01*
X54889Y-57570D01*
X54925Y-57558D01*
X54949Y-57558D01*
X54984Y-57570D01*
X54996Y-57582D01*
X55246Y-57784D02*
X55234Y-57796D01*
X55199Y-57808D01*
X55175Y-57808D01*
X55139Y-57796D01*
X55115Y-57772D01*
X55103Y-57749D01*
X55091Y-57701D01*
X55091Y-57665D01*
X55103Y-57618D01*
X55115Y-57594D01*
X55139Y-57570D01*
X55175Y-57558D01*
X55199Y-57558D01*
X55234Y-57570D01*
X55246Y-57582D01*
G54D12*
X44495Y-56825D02*
X44755Y-56565D01*
X44495Y-56765D02*
X44690Y-56565D01*
X45005Y-57255D02*
X45225Y-57255D01*
X45005Y-56745D02*
X45225Y-56745D01*
X44495Y-57000D02*
X44275Y-57000D01*
X44495Y-57255D02*
X44275Y-57255D01*
X44495Y-56745D02*
X44275Y-56745D01*
X45005Y-56565D02*
X45005Y-57435D01*
X45005Y-57435D02*
X44495Y-57435D01*
X44495Y-57435D02*
X44495Y-56565D01*
X44495Y-56565D02*
X45005Y-56565D01*
X49511Y-47750D02*
G75*
G03X49511Y-47750I-111J0D01*
G74*
G01*
X50900Y-49500D02*
X50900Y-47500D01*
X50900Y-47500D02*
X49100Y-47500D01*
X49100Y-47500D02*
X49100Y-49500D01*
X49100Y-49500D02*
X50900Y-49500D01*
X50711Y-52250D02*
G75*
G03X50711Y-52250I-111J0D01*
G74*
G01*
X49100Y-50500D02*
X49100Y-52500D01*
X49100Y-52500D02*
X50900Y-52500D01*
X50900Y-52500D02*
X50900Y-50500D01*
X50900Y-50500D02*
X49100Y-50500D01*
X46450Y-56800D02*
X46650Y-56500D01*
X46450Y-57500D02*
X46450Y-56475D01*
X46450Y-56475D02*
X47050Y-56475D01*
X47050Y-56475D02*
X47050Y-57500D01*
X47050Y-57500D02*
X46450Y-57500D01*
G54D13*
X52200Y-45550D02*
X51900Y-45550D01*
X51900Y-45550D02*
X51900Y-44950D01*
X51900Y-44950D02*
X52200Y-44950D01*
X47800Y-46150D02*
X47800Y-44350D01*
X47800Y-44350D02*
X52200Y-44350D01*
X52200Y-44350D02*
X52200Y-46150D01*
X52200Y-46150D02*
X47800Y-46150D01*
X47800Y-54450D02*
X48100Y-54450D01*
X48100Y-54450D02*
X48100Y-55050D01*
X48100Y-55050D02*
X47800Y-55050D01*
X52200Y-53850D02*
X52200Y-55650D01*
X52200Y-55650D02*
X47800Y-55650D01*
X47800Y-55650D02*
X47800Y-53850D01*
X47800Y-53850D02*
X52200Y-53850D01*
G54D14*
X47200Y-54950D02*
G75*
G03X47200Y-54950I-50J0D01*
G74*
G01*
X46700Y-54950D02*
X47100Y-54950D01*
X47100Y-54950D02*
X47100Y-55550D01*
X47100Y-55550D02*
X46700Y-55550D01*
X46300Y-55550D02*
X45900Y-55550D01*
X45900Y-55550D02*
X45900Y-54950D01*
X45900Y-54950D02*
X46300Y-54950D01*
X49370Y-50279D02*
G75*
G03X49370Y-50279I-50J0D01*
G74*
G01*
X49770Y-50279D02*
X49370Y-50279D01*
X49370Y-50279D02*
X49370Y-49679D01*
X49370Y-49679D02*
X49770Y-49679D01*
X50170Y-49679D02*
X50570Y-49679D01*
X50570Y-49679D02*
X50570Y-50279D01*
X50570Y-50279D02*
X50170Y-50279D01*
X45460Y-55810D02*
G75*
G03X45460Y-55810I-50J0D01*
G74*
G01*
X44960Y-55810D02*
X45360Y-55810D01*
X45360Y-55810D02*
X45360Y-56410D01*
X45360Y-56410D02*
X44960Y-56410D01*
X44560Y-56410D02*
X44160Y-56410D01*
X44160Y-56410D02*
X44160Y-55810D01*
X44160Y-55810D02*
X44560Y-55810D01*
X48350Y-52700D02*
G75*
G03X48350Y-52700I-50J0D01*
G74*
G01*
X48300Y-52250D02*
X48300Y-52650D01*
X48300Y-52650D02*
X47700Y-52650D01*
X47700Y-52650D02*
X47700Y-52250D01*
X47700Y-51850D02*
X47700Y-51450D01*
X47700Y-51450D02*
X48300Y-51450D01*
X48300Y-51450D02*
X48300Y-51850D01*
X52420Y-49400D02*
G75*
G03X52420Y-49400I-50J0D01*
G74*
G01*
X52370Y-48950D02*
X52370Y-49350D01*
X52370Y-49350D02*
X51770Y-49350D01*
X51770Y-49350D02*
X51770Y-48950D01*
X51770Y-48550D02*
X51770Y-48150D01*
X51770Y-48150D02*
X52370Y-48150D01*
X52370Y-48150D02*
X52370Y-48550D01*
X53109Y-45909D02*
G75*
G03X53109Y-45909I-50J0D01*
G74*
G01*
X53059Y-45459D02*
X53059Y-45859D01*
X53059Y-45859D02*
X52459Y-45859D01*
X52459Y-45859D02*
X52459Y-45459D01*
X52459Y-45059D02*
X52459Y-44659D01*
X52459Y-44659D02*
X53059Y-44659D01*
X53059Y-44659D02*
X53059Y-45059D01*
X47070Y-53220D02*
G75*
G03X47070Y-53220I-50J0D01*
G74*
G01*
X47020Y-53670D02*
X47020Y-53270D01*
X47020Y-53270D02*
X47620Y-53270D01*
X47620Y-53270D02*
X47620Y-53670D01*
X47620Y-54070D02*
X47620Y-54470D01*
X47620Y-54470D02*
X47020Y-54470D01*
X47020Y-54470D02*
X47020Y-54070D01*
G54D15*
X46750Y-46000D02*
X46750Y-54000D01*
X46750Y-54000D02*
X45750Y-54000D01*
X45750Y-54000D02*
X45750Y-46000D01*
X45750Y-46000D02*
X46750Y-46000D01*
X45750Y-47000D02*
X46750Y-47000D01*
X54250Y-46000D02*
X54250Y-54000D01*
X54250Y-54000D02*
X53250Y-54000D01*
X53250Y-54000D02*
X53250Y-46000D01*
X53250Y-46000D02*
X54250Y-46000D01*
X53250Y-47000D02*
X54250Y-47000D01*
G54D16*
X44650Y-57559D02*
X44650Y-57655D01*
X44655Y-57666D01*
X44661Y-57672D01*
X44672Y-57677D01*
X44695Y-57677D01*
X44706Y-57672D01*
X44711Y-57666D01*
X44717Y-57655D01*
X44717Y-57559D01*
X44829Y-57559D02*
X44773Y-57559D01*
X44768Y-57615D01*
X44773Y-57610D01*
X44784Y-57604D01*
X44813Y-57604D01*
X44824Y-57610D01*
X44829Y-57615D01*
X44835Y-57627D01*
X44835Y-57655D01*
X44829Y-57666D01*
X44824Y-57672D01*
X44813Y-57677D01*
X44784Y-57677D01*
X44773Y-57672D01*
X44768Y-57666D01*
G54D17*
X49740Y-47145D02*
X49740Y-47369D01*
X49751Y-47395D01*
X49762Y-47408D01*
X49785Y-47421D01*
X49830Y-47421D01*
X49852Y-47408D01*
X49863Y-47395D01*
X49875Y-47369D01*
X49875Y-47145D01*
X50111Y-47421D02*
X49976Y-47421D01*
X50043Y-47421D02*
X50043Y-47145D01*
X50021Y-47185D01*
X49998Y-47211D01*
X49976Y-47224D01*
X49910Y-52625D02*
X49910Y-52849D01*
X49921Y-52875D01*
X49932Y-52888D01*
X49955Y-52901D01*
X50000Y-52901D01*
X50022Y-52888D01*
X50033Y-52875D01*
X50045Y-52849D01*
X50045Y-52625D01*
X50146Y-52652D02*
X50157Y-52638D01*
X50179Y-52625D01*
X50236Y-52625D01*
X50258Y-52638D01*
X50269Y-52652D01*
X50281Y-52678D01*
X50281Y-52704D01*
X50269Y-52744D01*
X50134Y-52901D01*
X50281Y-52901D01*
G54D18*
X46521Y-57608D02*
X46521Y-57851D01*
X46535Y-57879D01*
X46550Y-57894D01*
X46578Y-57908D01*
X46635Y-57908D01*
X46664Y-57894D01*
X46678Y-57879D01*
X46692Y-57851D01*
X46692Y-57608D01*
X46964Y-57608D02*
X46907Y-57608D01*
X46878Y-57622D01*
X46864Y-57637D01*
X46835Y-57679D01*
X46821Y-57737D01*
X46821Y-57851D01*
X46835Y-57879D01*
X46850Y-57894D01*
X46878Y-57908D01*
X46935Y-57908D01*
X46964Y-57894D01*
X46978Y-57879D01*
X46992Y-57851D01*
X46992Y-57779D01*
X46978Y-57751D01*
X46964Y-57737D01*
X46935Y-57722D01*
X46878Y-57722D01*
X46850Y-57737D01*
X46835Y-57751D01*
X46821Y-57779D01*
G54D13*
X46995Y-45161D02*
X46995Y-45485D01*
X47014Y-45523D01*
X47033Y-45542D01*
X47071Y-45561D01*
X47147Y-45561D01*
X47185Y-45542D01*
X47204Y-45523D01*
X47223Y-45485D01*
X47223Y-45161D01*
X47376Y-45161D02*
X47623Y-45161D01*
X47490Y-45314D01*
X47547Y-45314D01*
X47585Y-45333D01*
X47604Y-45352D01*
X47623Y-45390D01*
X47623Y-45485D01*
X47604Y-45523D01*
X47585Y-45542D01*
X47547Y-45561D01*
X47433Y-45561D01*
X47395Y-45542D01*
X47376Y-45523D01*
X52355Y-54441D02*
X52355Y-54765D01*
X52374Y-54803D01*
X52393Y-54822D01*
X52431Y-54841D01*
X52507Y-54841D01*
X52545Y-54822D01*
X52564Y-54803D01*
X52583Y-54765D01*
X52583Y-54441D01*
X52945Y-54575D02*
X52945Y-54841D01*
X52850Y-54422D02*
X52755Y-54708D01*
X53002Y-54708D01*
G54D19*
X46317Y-55849D02*
X46251Y-55755D01*
X46204Y-55849D02*
X46204Y-55652D01*
X46279Y-55652D01*
X46298Y-55662D01*
X46307Y-55671D01*
X46317Y-55690D01*
X46317Y-55718D01*
X46307Y-55737D01*
X46298Y-55746D01*
X46279Y-55755D01*
X46204Y-55755D01*
X46504Y-55849D02*
X46392Y-55849D01*
X46448Y-55849D02*
X46448Y-55652D01*
X46429Y-55680D01*
X46410Y-55699D01*
X46392Y-55709D01*
X49057Y-50060D02*
X49047Y-50070D01*
X49019Y-50079D01*
X49000Y-50079D01*
X48972Y-50070D01*
X48953Y-50051D01*
X48944Y-50032D01*
X48935Y-49995D01*
X48935Y-49967D01*
X48944Y-49929D01*
X48953Y-49910D01*
X48972Y-49892D01*
X49000Y-49882D01*
X49019Y-49882D01*
X49047Y-49892D01*
X49057Y-49901D01*
X49244Y-50079D02*
X49132Y-50079D01*
X49188Y-50079D02*
X49188Y-49882D01*
X49169Y-49910D01*
X49150Y-49929D01*
X49132Y-49939D01*
X44697Y-55680D02*
X44687Y-55690D01*
X44659Y-55699D01*
X44640Y-55699D01*
X44612Y-55690D01*
X44593Y-55671D01*
X44584Y-55652D01*
X44575Y-55615D01*
X44575Y-55587D01*
X44584Y-55549D01*
X44593Y-55530D01*
X44612Y-55512D01*
X44640Y-55502D01*
X44659Y-55502D01*
X44687Y-55512D01*
X44697Y-55521D01*
X44772Y-55521D02*
X44781Y-55512D01*
X44800Y-55502D01*
X44847Y-55502D01*
X44866Y-55512D01*
X44875Y-55521D01*
X44884Y-55540D01*
X44884Y-55559D01*
X44875Y-55587D01*
X44762Y-55699D01*
X44884Y-55699D01*
X47937Y-51330D02*
X47927Y-51340D01*
X47899Y-51349D01*
X47880Y-51349D01*
X47852Y-51340D01*
X47833Y-51321D01*
X47824Y-51302D01*
X47815Y-51265D01*
X47815Y-51237D01*
X47824Y-51199D01*
X47833Y-51180D01*
X47852Y-51162D01*
X47880Y-51152D01*
X47899Y-51152D01*
X47927Y-51162D01*
X47937Y-51171D01*
X48002Y-51152D02*
X48124Y-51152D01*
X48059Y-51227D01*
X48087Y-51227D01*
X48106Y-51237D01*
X48115Y-51246D01*
X48124Y-51265D01*
X48124Y-51312D01*
X48115Y-51330D01*
X48106Y-51340D01*
X48087Y-51349D01*
X48030Y-51349D01*
X48012Y-51340D01*
X48002Y-51330D01*
X52017Y-49620D02*
X52007Y-49630D01*
X51979Y-49639D01*
X51960Y-49639D01*
X51932Y-49630D01*
X51913Y-49611D01*
X51904Y-49592D01*
X51895Y-49555D01*
X51895Y-49527D01*
X51904Y-49489D01*
X51913Y-49470D01*
X51932Y-49452D01*
X51960Y-49442D01*
X51979Y-49442D01*
X52007Y-49452D01*
X52017Y-49461D01*
X52186Y-49508D02*
X52186Y-49639D01*
X52139Y-49433D02*
X52092Y-49574D01*
X52214Y-49574D01*
X52737Y-46150D02*
X52727Y-46160D01*
X52699Y-46169D01*
X52680Y-46169D01*
X52652Y-46160D01*
X52633Y-46141D01*
X52624Y-46122D01*
X52615Y-46085D01*
X52615Y-46057D01*
X52624Y-46019D01*
X52633Y-46000D01*
X52652Y-45982D01*
X52680Y-45972D01*
X52699Y-45972D01*
X52727Y-45982D01*
X52737Y-45991D01*
X52915Y-45972D02*
X52821Y-45972D01*
X52812Y-46066D01*
X52821Y-46057D01*
X52840Y-46047D01*
X52887Y-46047D01*
X52906Y-46057D01*
X52915Y-46066D01*
X52924Y-46085D01*
X52924Y-46132D01*
X52915Y-46150D01*
X52906Y-46160D01*
X52887Y-46169D01*
X52840Y-46169D01*
X52821Y-46160D01*
X52812Y-46150D01*
X47327Y-53100D02*
X47317Y-53110D01*
X47289Y-53119D01*
X47270Y-53119D01*
X47242Y-53110D01*
X47223Y-53091D01*
X47214Y-53072D01*
X47205Y-53035D01*
X47205Y-53007D01*
X47214Y-52969D01*
X47223Y-52950D01*
X47242Y-52932D01*
X47270Y-52922D01*
X47289Y-52922D01*
X47317Y-52932D01*
X47327Y-52941D01*
X47496Y-52922D02*
X47458Y-52922D01*
X47439Y-52932D01*
X47430Y-52941D01*
X47411Y-52969D01*
X47402Y-53007D01*
X47402Y-53082D01*
X47411Y-53100D01*
X47420Y-53110D01*
X47439Y-53119D01*
X47477Y-53119D01*
X47496Y-53110D01*
X47505Y-53100D01*
X47514Y-53082D01*
X47514Y-53035D01*
X47505Y-53016D01*
X47496Y-53007D01*
X47477Y-52997D01*
X47439Y-52997D01*
X47420Y-53007D01*
X47411Y-53016D01*
X47402Y-53035D01*
G54D10*
X51616Y-57049D02*
X51419Y-56767D01*
X51278Y-57049D02*
X51278Y-56458D01*
X51503Y-56458D01*
X51560Y-56486D01*
X51588Y-56514D01*
X51616Y-56570D01*
X51616Y-56655D01*
X51588Y-56711D01*
X51560Y-56739D01*
X51503Y-56767D01*
X51278Y-56767D01*
X51869Y-57049D02*
X51869Y-56458D01*
X52094Y-56458D01*
X52150Y-56486D01*
X52178Y-56514D01*
X52206Y-56570D01*
X52206Y-56655D01*
X52178Y-56711D01*
X52150Y-56739D01*
X52094Y-56767D01*
X51869Y-56767D01*
X52769Y-57049D02*
X52431Y-57049D01*
X52600Y-57049D02*
X52600Y-56458D01*
X52544Y-56542D01*
X52488Y-56599D01*
X52431Y-56627D01*
X54109Y-43593D02*
X53827Y-43790D01*
X54109Y-43931D02*
X53518Y-43931D01*
X53518Y-43706D01*
X53546Y-43649D01*
X53574Y-43621D01*
X53630Y-43593D01*
X53715Y-43593D01*
X53771Y-43621D01*
X53799Y-43649D01*
X53827Y-43706D01*
X53827Y-43931D01*
X54109Y-43340D02*
X53518Y-43340D01*
X53518Y-43115D01*
X53546Y-43059D01*
X53574Y-43031D01*
X53630Y-43003D01*
X53715Y-43003D01*
X53771Y-43031D01*
X53799Y-43059D01*
X53827Y-43115D01*
X53827Y-43340D01*
X53574Y-42778D02*
X53546Y-42750D01*
X53518Y-42693D01*
X53518Y-42553D01*
X53546Y-42496D01*
X53574Y-42468D01*
X53630Y-42440D01*
X53687Y-42440D01*
X53771Y-42468D01*
X54109Y-42806D01*
X54109Y-42440D01*
M02*
