G04 (created by PCBNEW (2013-07-07 BZR 4022)-stable) date 04/05/2015 22:03:08*
%MOIN*%
G04 Gerber Fmt 3.4, Leading zero omitted, Abs format*
%FSLAX34Y34*%
G01*
G70*
G90*
G04 APERTURE LIST*
%ADD10C,0.00590551*%
%ADD11C,0.0001*%
%ADD12R,0.0315X0.018*%
%ADD13R,0.0315X0.0197*%
%ADD14R,0.0579X0.0165*%
%ADD15R,0.0394X0.0276*%
%ADD16R,0.02X0.045*%
%ADD17R,0.035X0.055*%
%ADD18R,0.055X0.035*%
%ADD19R,0.055X0.055*%
%ADD20C,0.055*%
%ADD21C,0.0551181*%
%ADD22R,0.0177165X0.0354331*%
%ADD23R,0.0354331X0.0177165*%
%ADD24C,0.035*%
%ADD25C,0.006*%
%ADD26C,0.02*%
%ADD27C,0.01*%
G04 APERTURE END LIST*
G54D10*
G54D11*
G36*
X44614Y-43671D02*
X44627Y-43664D01*
X44654Y-43647D01*
X44694Y-43621D01*
X44740Y-43590D01*
X44787Y-43558D01*
X44826Y-43532D01*
X44853Y-43515D01*
X44864Y-43509D01*
X44870Y-43511D01*
X44892Y-43522D01*
X44924Y-43539D01*
X44943Y-43548D01*
X44973Y-43561D01*
X44987Y-43564D01*
X44990Y-43560D01*
X45001Y-43537D01*
X45018Y-43498D01*
X45040Y-43447D01*
X45066Y-43387D01*
X45093Y-43322D01*
X45120Y-43256D01*
X45146Y-43194D01*
X45170Y-43137D01*
X45188Y-43091D01*
X45200Y-43059D01*
X45205Y-43045D01*
X45203Y-43042D01*
X45189Y-43028D01*
X45163Y-43009D01*
X45107Y-42963D01*
X45052Y-42894D01*
X45018Y-42816D01*
X45007Y-42729D01*
X45016Y-42649D01*
X45048Y-42572D01*
X45102Y-42502D01*
X45168Y-42450D01*
X45244Y-42418D01*
X45330Y-42407D01*
X45412Y-42416D01*
X45491Y-42447D01*
X45561Y-42500D01*
X45590Y-42534D01*
X45631Y-42605D01*
X45654Y-42680D01*
X45656Y-42699D01*
X45653Y-42782D01*
X45628Y-42862D01*
X45585Y-42933D01*
X45524Y-42991D01*
X45516Y-42997D01*
X45488Y-43018D01*
X45469Y-43032D01*
X45454Y-43044D01*
X45560Y-43299D01*
X45577Y-43339D01*
X45606Y-43408D01*
X45631Y-43468D01*
X45652Y-43516D01*
X45666Y-43548D01*
X45672Y-43561D01*
X45673Y-43561D01*
X45682Y-43563D01*
X45701Y-43556D01*
X45737Y-43539D01*
X45760Y-43527D01*
X45787Y-43514D01*
X45799Y-43509D01*
X45810Y-43514D01*
X45836Y-43531D01*
X45873Y-43557D01*
X45919Y-43587D01*
X45962Y-43617D01*
X46002Y-43643D01*
X46031Y-43662D01*
X46045Y-43669D01*
X46047Y-43669D01*
X46060Y-43662D01*
X46083Y-43643D01*
X46117Y-43610D01*
X46166Y-43562D01*
X46174Y-43555D01*
X46214Y-43514D01*
X46247Y-43479D01*
X46269Y-43455D01*
X46277Y-43444D01*
X46277Y-43444D01*
X46269Y-43430D01*
X46251Y-43401D01*
X46225Y-43361D01*
X46193Y-43313D01*
X46108Y-43191D01*
X46155Y-43076D01*
X46169Y-43040D01*
X46187Y-42997D01*
X46200Y-42967D01*
X46207Y-42953D01*
X46220Y-42949D01*
X46251Y-42941D01*
X46297Y-42932D01*
X46352Y-42922D01*
X46404Y-42912D01*
X46451Y-42903D01*
X46485Y-42897D01*
X46500Y-42894D01*
X46504Y-42891D01*
X46507Y-42884D01*
X46509Y-42868D01*
X46510Y-42839D01*
X46511Y-42794D01*
X46511Y-42729D01*
X46511Y-42722D01*
X46510Y-42660D01*
X46509Y-42611D01*
X46507Y-42579D01*
X46505Y-42566D01*
X46505Y-42566D01*
X46490Y-42562D01*
X46457Y-42555D01*
X46410Y-42546D01*
X46354Y-42535D01*
X46350Y-42535D01*
X46294Y-42524D01*
X46248Y-42514D01*
X46215Y-42507D01*
X46201Y-42502D01*
X46198Y-42498D01*
X46187Y-42476D01*
X46171Y-42442D01*
X46152Y-42400D01*
X46134Y-42356D01*
X46118Y-42316D01*
X46108Y-42287D01*
X46105Y-42273D01*
X46105Y-42273D01*
X46113Y-42260D01*
X46132Y-42231D01*
X46160Y-42191D01*
X46192Y-42143D01*
X46195Y-42139D01*
X46227Y-42092D01*
X46253Y-42052D01*
X46270Y-42024D01*
X46277Y-42011D01*
X46277Y-42010D01*
X46266Y-41996D01*
X46242Y-41969D01*
X46207Y-41933D01*
X46166Y-41892D01*
X46153Y-41879D01*
X46107Y-41834D01*
X46075Y-41805D01*
X46055Y-41789D01*
X46046Y-41785D01*
X46045Y-41786D01*
X46031Y-41794D01*
X46001Y-41814D01*
X45961Y-41841D01*
X45913Y-41874D01*
X45910Y-41876D01*
X45862Y-41908D01*
X45823Y-41935D01*
X45795Y-41953D01*
X45783Y-41960D01*
X45781Y-41960D01*
X45762Y-41955D01*
X45728Y-41943D01*
X45687Y-41927D01*
X45643Y-41910D01*
X45603Y-41893D01*
X45574Y-41879D01*
X45560Y-41871D01*
X45559Y-41871D01*
X45554Y-41854D01*
X45546Y-41818D01*
X45536Y-41770D01*
X45525Y-41712D01*
X45523Y-41703D01*
X45513Y-41646D01*
X45504Y-41600D01*
X45497Y-41568D01*
X45494Y-41554D01*
X45486Y-41553D01*
X45458Y-41551D01*
X45416Y-41549D01*
X45365Y-41549D01*
X45312Y-41549D01*
X45260Y-41550D01*
X45216Y-41552D01*
X45184Y-41554D01*
X45170Y-41557D01*
X45170Y-41558D01*
X45165Y-41575D01*
X45157Y-41610D01*
X45147Y-41659D01*
X45136Y-41717D01*
X45134Y-41728D01*
X45124Y-41784D01*
X45114Y-41830D01*
X45107Y-41861D01*
X45104Y-41874D01*
X45099Y-41876D01*
X45076Y-41887D01*
X45038Y-41902D01*
X44991Y-41921D01*
X44883Y-41965D01*
X44751Y-41874D01*
X44739Y-41866D01*
X44691Y-41833D01*
X44652Y-41807D01*
X44624Y-41790D01*
X44613Y-41783D01*
X44612Y-41784D01*
X44599Y-41795D01*
X44573Y-41820D01*
X44537Y-41855D01*
X44495Y-41896D01*
X44464Y-41927D01*
X44428Y-41964D01*
X44405Y-41989D01*
X44392Y-42005D01*
X44387Y-42015D01*
X44389Y-42022D01*
X44397Y-42035D01*
X44417Y-42064D01*
X44444Y-42105D01*
X44476Y-42151D01*
X44503Y-42191D01*
X44532Y-42235D01*
X44550Y-42267D01*
X44557Y-42282D01*
X44555Y-42289D01*
X44546Y-42315D01*
X44530Y-42354D01*
X44510Y-42401D01*
X44464Y-42506D01*
X44395Y-42519D01*
X44354Y-42527D01*
X44295Y-42538D01*
X44239Y-42549D01*
X44152Y-42566D01*
X44149Y-42885D01*
X44163Y-42891D01*
X44176Y-42895D01*
X44208Y-42902D01*
X44254Y-42911D01*
X44308Y-42921D01*
X44355Y-42930D01*
X44401Y-42939D01*
X44435Y-42945D01*
X44450Y-42948D01*
X44453Y-42953D01*
X44465Y-42976D01*
X44482Y-43012D01*
X44500Y-43055D01*
X44519Y-43100D01*
X44535Y-43141D01*
X44547Y-43173D01*
X44551Y-43189D01*
X44545Y-43201D01*
X44527Y-43229D01*
X44501Y-43268D01*
X44470Y-43314D01*
X44438Y-43361D01*
X44411Y-43400D01*
X44392Y-43429D01*
X44385Y-43442D01*
X44389Y-43451D01*
X44407Y-43473D01*
X44442Y-43509D01*
X44494Y-43561D01*
X44503Y-43569D01*
X44544Y-43609D01*
X44579Y-43641D01*
X44603Y-43663D01*
X44614Y-43671D01*
X44614Y-43671D01*
G37*
G54D12*
X44356Y-56744D03*
X44356Y-57256D03*
X44356Y-57000D03*
G54D13*
X45144Y-57256D03*
X45144Y-56744D03*
G54D14*
X48898Y-48372D03*
X48898Y-48628D03*
X48898Y-48884D03*
X48898Y-49140D03*
X51100Y-47608D03*
X48898Y-47604D03*
X48898Y-47860D03*
X48898Y-48116D03*
X51102Y-49396D03*
X51102Y-49140D03*
X51102Y-48884D03*
X51102Y-48628D03*
X51102Y-48372D03*
X51102Y-48116D03*
X48898Y-49396D03*
X51100Y-47860D03*
X51102Y-51628D03*
X51102Y-51372D03*
X51102Y-51116D03*
X51102Y-50860D03*
X48900Y-52392D03*
X51102Y-52396D03*
X51102Y-52140D03*
X51102Y-51884D03*
X48898Y-50604D03*
X48898Y-50860D03*
X48898Y-51116D03*
X48898Y-51372D03*
X48898Y-51628D03*
X48898Y-51884D03*
X51102Y-50604D03*
X48900Y-52140D03*
G54D15*
X47250Y-56625D03*
X47250Y-57000D03*
X47250Y-57375D03*
X46250Y-57375D03*
X46250Y-57000D03*
X46250Y-56625D03*
G54D16*
X51750Y-46500D03*
X50750Y-46500D03*
X50250Y-46500D03*
X49750Y-46500D03*
X49250Y-46500D03*
X48750Y-46500D03*
X48250Y-46500D03*
X48250Y-44000D03*
X48750Y-44000D03*
X49250Y-44000D03*
X49750Y-44000D03*
X50250Y-44000D03*
X50750Y-44000D03*
X51250Y-44000D03*
X51750Y-44000D03*
X51250Y-46500D03*
X48250Y-53500D03*
X49250Y-53500D03*
X49750Y-53500D03*
X50250Y-53500D03*
X50750Y-53500D03*
X51250Y-53500D03*
X51750Y-53500D03*
X51750Y-56000D03*
X51250Y-56000D03*
X50750Y-56000D03*
X50250Y-56000D03*
X49750Y-56000D03*
X49250Y-56000D03*
X48750Y-56000D03*
X48250Y-56000D03*
X48750Y-53500D03*
G54D17*
X46875Y-55250D03*
X46125Y-55250D03*
X49595Y-49979D03*
X50345Y-49979D03*
X45135Y-56110D03*
X44385Y-56110D03*
G54D18*
X48000Y-52425D03*
X48000Y-51675D03*
X52070Y-49125D03*
X52070Y-48375D03*
X52759Y-45634D03*
X52759Y-44884D03*
X47320Y-53495D03*
X47320Y-54245D03*
G54D19*
X46650Y-46500D03*
G54D20*
X46650Y-47500D03*
X46650Y-48500D03*
X46650Y-49500D03*
X46650Y-50500D03*
X46650Y-51500D03*
X46650Y-52500D03*
X46650Y-53500D03*
G54D19*
X53750Y-46500D03*
G54D20*
X53750Y-47500D03*
X53750Y-48500D03*
X53750Y-49500D03*
X53750Y-50500D03*
X53750Y-51500D03*
X53750Y-52500D03*
X53750Y-53500D03*
G54D19*
X52000Y-58000D03*
G54D20*
X51000Y-58000D03*
X50000Y-58000D03*
X49000Y-58000D03*
X48000Y-58000D03*
X48000Y-42000D03*
X49000Y-42000D03*
X50000Y-42000D03*
G54D21*
X51000Y-42000D03*
X52000Y-42000D03*
G54D22*
X53596Y-56427D03*
X53911Y-56427D03*
X53281Y-56427D03*
X52966Y-56427D03*
X52966Y-57096D03*
X53271Y-57096D03*
X53596Y-57096D03*
X53911Y-57096D03*
G54D23*
X53072Y-43346D03*
X53072Y-43661D03*
X53072Y-43031D03*
X53072Y-42716D03*
X52403Y-42716D03*
X52403Y-43021D03*
X52403Y-43346D03*
X52403Y-43661D03*
G54D24*
X48220Y-50930D03*
X51930Y-50480D03*
X50010Y-48880D03*
X50680Y-47070D03*
X51960Y-47500D03*
X48750Y-53011D03*
X53260Y-44060D03*
X54610Y-48290D03*
X46518Y-54039D03*
X48530Y-49800D03*
X47670Y-49810D03*
X44880Y-50960D03*
X44380Y-54680D03*
X47320Y-55769D03*
X52270Y-56010D03*
X48250Y-44600D03*
X52600Y-47860D03*
X46770Y-57000D03*
X49922Y-55129D03*
X49631Y-47816D03*
X47821Y-47609D03*
X50573Y-47836D03*
X49097Y-54579D03*
X48951Y-47166D03*
X50665Y-54024D03*
X49424Y-48189D03*
X50560Y-51144D03*
X48240Y-50389D03*
X50040Y-41400D03*
X54110Y-43510D03*
X48260Y-57160D03*
X53190Y-58150D03*
X49320Y-45480D03*
X52400Y-44050D03*
X49250Y-43020D03*
X51460Y-43020D03*
X49959Y-51020D03*
X50456Y-50593D03*
X49520Y-56700D03*
X46800Y-55800D03*
X53890Y-42510D03*
X51840Y-43360D03*
X51320Y-45240D03*
X53590Y-54550D03*
X50440Y-54550D03*
X51129Y-52714D03*
X50679Y-44466D03*
X53390Y-45650D03*
X54270Y-45650D03*
G54D25*
X48898Y-51116D02*
X48406Y-51116D01*
X48406Y-51116D02*
X48220Y-50930D01*
X51240Y-49790D02*
X51930Y-50480D01*
X50980Y-49790D02*
X51240Y-49790D01*
X50722Y-49532D02*
X50980Y-49790D01*
X50722Y-48920D02*
X50722Y-49532D01*
X50758Y-48884D02*
X50722Y-48920D01*
X50758Y-48884D02*
X51102Y-48884D01*
X50010Y-48466D02*
X50360Y-48116D01*
X50360Y-48116D02*
X51102Y-48116D01*
X50010Y-48880D02*
X50010Y-48466D01*
X46650Y-52500D02*
X47182Y-51967D01*
X48518Y-51884D02*
X48897Y-51884D01*
X47332Y-51967D02*
X48435Y-51967D01*
X48435Y-51967D02*
X48518Y-51884D01*
X47182Y-51967D02*
X47332Y-51967D01*
X51102Y-49396D02*
X51436Y-49396D01*
X52230Y-50980D02*
X53750Y-52500D01*
X52230Y-50190D02*
X52230Y-50980D01*
X51436Y-49396D02*
X52230Y-50190D01*
X47800Y-49500D02*
X46600Y-49500D01*
X48898Y-51372D02*
X48242Y-51372D01*
X48010Y-49710D02*
X47800Y-49500D01*
X48010Y-49930D02*
X48010Y-49710D01*
X47890Y-50050D02*
X48010Y-49930D01*
X47890Y-51020D02*
X47890Y-50050D01*
X48242Y-51372D02*
X47890Y-51020D01*
X51250Y-46500D02*
X51250Y-46810D01*
X50990Y-47070D02*
X50680Y-47070D01*
X51250Y-46810D02*
X50990Y-47070D01*
X51962Y-47497D02*
X51964Y-47500D01*
X51960Y-47500D02*
X51962Y-47497D01*
X53750Y-47500D02*
X51964Y-47500D01*
X48750Y-53500D02*
X48750Y-53011D01*
X53750Y-48500D02*
X54400Y-48500D01*
X51750Y-44280D02*
X51750Y-44000D01*
X51790Y-44320D02*
X51750Y-44280D01*
X53000Y-44320D02*
X51790Y-44320D01*
X53260Y-44060D02*
X53000Y-44320D01*
X54400Y-48500D02*
X54610Y-48290D01*
X45680Y-56625D02*
X46250Y-56625D01*
X45305Y-57000D02*
X45680Y-56625D01*
X44355Y-57000D02*
X45305Y-57000D01*
X46250Y-56625D02*
X46250Y-56396D01*
X46518Y-56128D02*
X46518Y-54039D01*
X46250Y-56396D02*
X46518Y-56128D01*
X46700Y-53856D02*
X46518Y-54039D01*
X47700Y-53856D02*
X46700Y-53856D01*
X48250Y-54405D02*
X47700Y-53856D01*
X48250Y-56000D02*
X48250Y-54405D01*
X51565Y-48711D02*
X51481Y-48627D01*
X52237Y-48711D02*
X51565Y-48711D01*
X53750Y-50224D02*
X52237Y-48711D01*
X53750Y-50500D02*
X53750Y-50224D01*
X51102Y-48627D02*
X51481Y-48627D01*
G54D26*
X47670Y-49810D02*
X47670Y-50120D01*
X47670Y-50120D02*
X46830Y-50960D01*
X48000Y-51675D02*
X47545Y-51675D01*
X47545Y-51675D02*
X46830Y-50960D01*
X46520Y-50960D02*
X44880Y-50960D01*
X46830Y-50960D02*
X46540Y-50960D01*
X46540Y-50960D02*
X46520Y-50960D01*
X48898Y-49396D02*
X48584Y-49396D01*
X48530Y-49450D02*
X48530Y-49800D01*
X48584Y-49396D02*
X48530Y-49450D01*
X48530Y-49800D02*
X48540Y-49810D01*
X44385Y-56110D02*
X44385Y-54685D01*
X44385Y-54685D02*
X44380Y-54680D01*
X44356Y-57256D02*
X44016Y-57256D01*
X44030Y-56110D02*
X44385Y-56110D01*
X43870Y-56270D02*
X44030Y-56110D01*
X43870Y-57110D02*
X43870Y-56270D01*
X44016Y-57256D02*
X43870Y-57110D01*
G54D25*
X47320Y-55750D02*
X47320Y-55769D01*
G54D26*
X52260Y-56000D02*
X51750Y-56000D01*
X52270Y-56010D02*
X52260Y-56000D01*
X50345Y-49979D02*
X50859Y-49979D01*
X51100Y-50220D02*
X51100Y-50520D01*
X50859Y-49979D02*
X51100Y-50220D01*
X51102Y-48372D02*
X50668Y-48372D01*
X50345Y-48694D02*
X50345Y-49979D01*
X50668Y-48372D02*
X50345Y-48694D01*
X48250Y-44000D02*
X48250Y-44600D01*
X46770Y-57000D02*
X46770Y-56320D01*
X47320Y-55750D02*
X47320Y-54245D01*
X46770Y-56320D02*
X47320Y-55769D01*
X53750Y-46500D02*
X53750Y-45010D01*
X53624Y-44884D02*
X52759Y-44884D01*
X53750Y-45010D02*
X53624Y-44884D01*
X51102Y-48372D02*
X52067Y-48372D01*
X52067Y-48372D02*
X52070Y-48375D01*
X52070Y-48375D02*
X52070Y-48009D01*
X52070Y-48009D02*
X52220Y-47860D01*
X52220Y-47860D02*
X52600Y-47860D01*
X48898Y-51628D02*
X48047Y-51628D01*
X48047Y-51628D02*
X48000Y-51675D01*
X47250Y-57000D02*
X46250Y-57000D01*
G54D27*
X46770Y-57000D02*
X47250Y-57000D01*
G54D25*
X46250Y-57000D02*
X46537Y-57000D01*
X46537Y-57000D02*
X46962Y-57000D01*
X47106Y-57000D02*
X46962Y-57000D01*
X47106Y-57000D02*
X47250Y-57000D01*
X52070Y-48375D02*
X52070Y-48301D01*
X51102Y-52140D02*
X50722Y-52140D01*
X50750Y-56000D02*
X50750Y-55684D01*
X50953Y-55481D02*
X50750Y-55684D01*
X50953Y-52913D02*
X50953Y-55481D01*
X50722Y-52682D02*
X50953Y-52913D01*
X50722Y-52140D02*
X50722Y-52682D01*
X51102Y-51627D02*
X50722Y-51627D01*
X49750Y-53500D02*
X49750Y-53184D01*
X50170Y-52180D02*
X50722Y-51627D01*
X50170Y-52764D02*
X50170Y-52180D01*
X49750Y-53184D02*
X50170Y-52764D01*
X48897Y-47860D02*
X49277Y-47860D01*
X50250Y-56000D02*
X50250Y-55684D01*
X49922Y-55357D02*
X49922Y-55129D01*
X50250Y-55684D02*
X49922Y-55357D01*
X49321Y-47816D02*
X49631Y-47816D01*
X49277Y-47860D02*
X49321Y-47816D01*
X49465Y-47416D02*
X49277Y-47604D01*
X49465Y-46145D02*
X49465Y-47416D01*
X51250Y-44360D02*
X49465Y-46145D01*
X51250Y-44000D02*
X51250Y-44360D01*
X48897Y-47604D02*
X49277Y-47604D01*
X51100Y-47860D02*
X50720Y-47860D01*
X49750Y-44000D02*
X49750Y-44315D01*
X50697Y-47836D02*
X50720Y-47860D01*
X50573Y-47836D02*
X50697Y-47836D01*
X47821Y-46243D02*
X47821Y-47609D01*
X49750Y-44315D02*
X47821Y-46243D01*
G54D26*
X47250Y-57375D02*
X47250Y-57850D01*
X47400Y-58000D02*
X48000Y-58000D01*
X47250Y-57850D02*
X47400Y-58000D01*
G54D25*
X49250Y-54426D02*
X49097Y-54579D01*
X49250Y-53500D02*
X49250Y-54426D01*
X48518Y-47447D02*
X48518Y-48372D01*
X48799Y-47166D02*
X48518Y-47447D01*
X48951Y-47166D02*
X48799Y-47166D01*
X48897Y-48372D02*
X48518Y-48372D01*
X49250Y-46500D02*
X49250Y-46815D01*
X48897Y-48884D02*
X48518Y-48884D01*
X48398Y-48763D02*
X48518Y-48884D01*
X48398Y-47344D02*
X48398Y-48763D01*
X48928Y-46815D02*
X48398Y-47344D01*
X49250Y-46815D02*
X48928Y-46815D01*
X50750Y-46500D02*
X50750Y-46184D01*
X48897Y-48627D02*
X49277Y-48627D01*
X49364Y-48627D02*
X49277Y-48627D01*
X50008Y-47984D02*
X49364Y-48627D01*
X50008Y-46283D02*
X50008Y-47984D01*
X50106Y-46184D02*
X50008Y-46283D01*
X50750Y-46184D02*
X50106Y-46184D01*
X50665Y-53899D02*
X50665Y-54024D01*
X50750Y-53815D02*
X50665Y-53899D01*
X49351Y-48115D02*
X48897Y-48115D01*
X49424Y-48189D02*
X49351Y-48115D01*
X50750Y-53500D02*
X50750Y-53815D01*
X45843Y-57255D02*
X45144Y-57255D01*
X45962Y-57375D02*
X45843Y-57255D01*
X46250Y-57375D02*
X45962Y-57375D01*
X48750Y-46815D02*
X48240Y-47324D01*
X48240Y-47324D02*
X48240Y-50389D01*
X51102Y-51115D02*
X50722Y-51115D01*
X48750Y-46500D02*
X48750Y-46815D01*
X50722Y-51115D02*
X50694Y-51144D01*
X50694Y-51144D02*
X50560Y-51144D01*
G54D26*
X52966Y-57096D02*
X49903Y-57096D01*
X49903Y-57096D02*
X49000Y-58000D01*
X53072Y-42716D02*
X53072Y-42002D01*
X52470Y-41400D02*
X50040Y-41400D01*
X53072Y-42002D02*
X52470Y-41400D01*
X53072Y-43661D02*
X53958Y-43661D01*
X53958Y-43661D02*
X54110Y-43510D01*
G54D25*
X50063Y-50749D02*
X50063Y-49633D01*
X50250Y-46500D02*
X50250Y-47912D01*
X50250Y-47912D02*
X50063Y-48099D01*
X50063Y-50749D02*
X50295Y-50981D01*
X50295Y-50981D02*
X50295Y-51253D01*
X50295Y-51253D02*
X50450Y-51409D01*
X50450Y-51409D02*
X50685Y-51409D01*
X50685Y-51409D02*
X50722Y-51372D01*
X50722Y-51372D02*
X51102Y-51372D01*
X49740Y-48422D02*
X50063Y-48099D01*
X49740Y-49310D02*
X49740Y-48422D01*
X50063Y-49633D02*
X49740Y-49310D01*
G54D26*
X51250Y-56000D02*
X51250Y-56294D01*
X51250Y-56294D02*
X51382Y-56427D01*
X52966Y-56427D02*
X51382Y-56427D01*
X51382Y-56427D02*
X51380Y-56430D01*
X47250Y-56625D02*
X47715Y-56625D01*
X48250Y-57160D02*
X48260Y-57160D01*
X47715Y-56625D02*
X48250Y-57160D01*
X51750Y-53500D02*
X51750Y-54040D01*
X53596Y-55886D02*
X53596Y-56427D01*
X51750Y-54040D02*
X53596Y-55886D01*
X53596Y-57096D02*
X53596Y-57743D01*
X53596Y-57743D02*
X53190Y-58150D01*
X48250Y-46500D02*
X48250Y-46130D01*
X48590Y-45790D02*
X48250Y-46130D01*
X49010Y-45790D02*
X48590Y-45790D01*
X49320Y-45480D02*
X49010Y-45790D01*
X52403Y-44046D02*
X52400Y-44050D01*
X52403Y-44046D02*
X52403Y-43661D01*
X52403Y-43021D02*
X51461Y-43021D01*
X48750Y-43520D02*
X48750Y-44000D01*
X49250Y-43020D02*
X48750Y-43520D01*
X51461Y-43021D02*
X51460Y-43020D01*
G54D25*
X49959Y-52760D02*
X49959Y-51020D01*
X49535Y-53184D02*
X49959Y-52760D01*
X49535Y-55399D02*
X49535Y-53184D01*
X49250Y-55684D02*
X49535Y-55399D01*
X51102Y-50860D02*
X50722Y-50860D01*
X49250Y-56000D02*
X49250Y-55684D01*
X50456Y-50593D02*
X50722Y-50860D01*
G54D26*
X52403Y-42716D02*
X51826Y-42716D01*
X50250Y-43120D02*
X50250Y-44000D01*
X50780Y-42590D02*
X50250Y-43120D01*
X51700Y-42590D02*
X50780Y-42590D01*
X51826Y-42716D02*
X51700Y-42590D01*
X46875Y-55250D02*
X46875Y-55725D01*
X49750Y-56470D02*
X49750Y-56000D01*
X49520Y-56700D02*
X49750Y-56470D01*
X46875Y-55725D02*
X46800Y-55800D01*
X53072Y-43031D02*
X53353Y-43031D01*
X49000Y-41485D02*
X49000Y-42000D01*
X49440Y-41045D02*
X49000Y-41485D01*
X52705Y-41045D02*
X49440Y-41045D01*
X53505Y-41845D02*
X52705Y-41045D01*
X53505Y-42880D02*
X53505Y-41845D01*
X53353Y-43031D02*
X53505Y-42880D01*
X53072Y-43346D02*
X53613Y-43346D01*
X53890Y-43070D02*
X53890Y-42510D01*
X53890Y-42510D02*
X53890Y-42480D01*
X53613Y-43346D02*
X53890Y-43070D01*
X53911Y-57096D02*
X53911Y-58218D01*
X51710Y-58710D02*
X51000Y-58000D01*
X53420Y-58710D02*
X51710Y-58710D01*
X53911Y-58218D02*
X53420Y-58710D01*
X51840Y-43360D02*
X51853Y-43346D01*
X51853Y-43346D02*
X52403Y-43346D01*
X49750Y-46500D02*
X49750Y-46246D01*
X50756Y-45240D02*
X51320Y-45240D01*
X49750Y-46246D02*
X50756Y-45240D01*
X46125Y-55250D02*
X45500Y-55250D01*
X49420Y-42580D02*
X50000Y-42000D01*
X48140Y-42580D02*
X49420Y-42580D01*
X44240Y-46480D02*
X48140Y-42580D01*
X44240Y-53990D02*
X44240Y-46480D01*
X45500Y-55250D02*
X44240Y-53990D01*
X50250Y-53500D02*
X50250Y-54360D01*
X53911Y-54871D02*
X53911Y-56427D01*
X53590Y-54550D02*
X53911Y-54871D01*
X50250Y-54360D02*
X50440Y-54550D01*
G54D25*
X49250Y-44000D02*
X49250Y-44360D01*
X44574Y-47210D02*
X44574Y-51753D01*
X44574Y-51753D02*
X45825Y-53004D01*
X45825Y-53004D02*
X46690Y-53004D01*
X46690Y-53004D02*
X47554Y-52140D01*
X47554Y-52140D02*
X48900Y-52140D01*
X46244Y-45540D02*
X44574Y-47210D01*
X48070Y-45540D02*
X46244Y-45540D01*
X49250Y-44360D02*
X48070Y-45540D01*
X50750Y-44000D02*
X50750Y-44396D01*
X50750Y-44396D02*
X50679Y-44466D01*
X51102Y-52687D02*
X51102Y-52395D01*
X51102Y-52687D02*
X51129Y-52714D01*
X48750Y-56000D02*
X48750Y-55684D01*
X48750Y-54552D02*
X48750Y-55684D01*
X48940Y-54361D02*
X48750Y-54552D01*
X48940Y-53202D02*
X48940Y-54361D01*
X49694Y-52448D02*
X48940Y-53202D01*
X49694Y-50910D02*
X49694Y-52448D01*
X49860Y-50744D02*
X49694Y-50910D01*
X49860Y-49665D02*
X49860Y-50744D01*
X49334Y-49140D02*
X49860Y-49665D01*
X48897Y-49140D02*
X49334Y-49140D01*
X51250Y-53500D02*
X51250Y-53184D01*
X51102Y-51884D02*
X51481Y-51884D01*
X51481Y-52953D02*
X51481Y-51884D01*
X51250Y-53184D02*
X51481Y-52953D01*
G54D26*
X46650Y-53500D02*
X47315Y-53500D01*
X47315Y-53500D02*
X47320Y-53495D01*
G54D27*
X45135Y-56110D02*
X46138Y-56110D01*
G54D25*
X46250Y-54490D02*
X46250Y-53500D01*
X46398Y-54638D02*
X46250Y-54490D01*
X46398Y-55850D02*
X46398Y-54638D01*
X46138Y-56110D02*
X46398Y-55850D01*
G54D26*
X45144Y-56744D02*
X45144Y-56119D01*
X45144Y-56119D02*
X45135Y-56110D01*
X52070Y-49125D02*
X52070Y-49550D01*
X52070Y-49550D02*
X52910Y-50390D01*
X53230Y-51020D02*
X55100Y-51020D01*
X52910Y-50390D02*
X52910Y-50700D01*
X52910Y-50700D02*
X53230Y-51020D01*
X51102Y-49140D02*
X52055Y-49140D01*
X52055Y-49140D02*
X52070Y-49125D01*
X52759Y-45634D02*
X53374Y-45634D01*
X53374Y-45634D02*
X53390Y-45650D01*
X54270Y-45650D02*
X55100Y-46480D01*
X55100Y-46480D02*
X55100Y-51020D01*
X55100Y-52150D02*
X53750Y-53500D01*
X55100Y-51020D02*
X55100Y-52150D01*
X52759Y-45634D02*
X52005Y-45634D01*
X51750Y-45890D02*
X51950Y-45690D01*
X51750Y-45890D02*
X51750Y-46500D01*
X52005Y-45634D02*
X51950Y-45690D01*
X51100Y-47520D02*
X51100Y-47410D01*
X51750Y-46760D02*
X51750Y-46500D01*
X51100Y-47410D02*
X51750Y-46760D01*
X48000Y-52425D02*
X47605Y-52425D01*
X47320Y-52709D02*
X47320Y-53495D01*
X47605Y-52425D02*
X47320Y-52709D01*
X48250Y-53500D02*
X47325Y-53500D01*
X47325Y-53500D02*
X47320Y-53495D01*
X48900Y-52392D02*
X48033Y-52392D01*
X48033Y-52392D02*
X48000Y-52425D01*
X48898Y-50860D02*
X49386Y-50860D01*
X49386Y-50860D02*
X49420Y-50826D01*
X48900Y-52392D02*
X49338Y-52392D01*
X49595Y-50514D02*
X49420Y-50690D01*
X49420Y-50690D02*
X49420Y-50826D01*
X49420Y-50826D02*
X49420Y-50870D01*
X49595Y-50514D02*
X49595Y-49979D01*
X49420Y-52310D02*
X49420Y-50870D01*
X49338Y-52392D02*
X49420Y-52310D01*
G54D25*
X47320Y-53495D02*
X46954Y-53495D01*
X46253Y-53500D02*
X46250Y-53500D01*
X46950Y-53500D02*
X46253Y-53500D01*
X46954Y-53495D02*
X46950Y-53500D01*
M02*
